# xmcd
#
# Track frame offsets: 
#        150
#        16117
#        33507
#        47365
#        55652
#        68737
#        74255
#        79515
#        94177
#        107900
#        120352
#        135780
#        149630
#        164110
#        166732
#        182142
#        195045
#        210437
#        220082
#        229647
#        245712
#        262242
#
# Disc length: 3699 seconds
#
# Revision: 8
# Processed by: cddbd v1.5.2PL0 Copyright (c) Steve Scherf et al.
# Submitted via: ExactAudioCopy v0.95b3
#
DISCID=290e7116
DTITLE=Muddy Waters - The Complete Plantation Recordings
DYEAR=1993
DGENRE=Blues
TTITLE0=Country Blues (Number One)
TTITLE1=Interview #1 (Previously Unissued)
TTITLE2=I Be's Troubled
TTITLE3=Interview #2 (Previously Unissued)
TTITLE4=Burr Clover Farm Blues (Previously Unissued)
TTITLE5=Interview #3 (Previously Unissued)
TTITLE6=Ramblin' Kid Blues (Partial) (Previously Unissued)
TTITLE7=Ramblin' Kid Blues
TTITLE8=Rosalie
TTITLE9=Joe Turner (Vocal By Louis Ford)
TTITLE10=Pearlie May Blues (Vocal By Percy Thomas)
TTITLE11=Take A Walk With Me (Second Guitar By Son Simms)
TTITLE12=Burr Clover Blues (Second Guitar By Son Simms)
TTITLE13=Interview #4
TTITLE14=I Be Bound To Write To You (First Version) (Second Guitar By 
TTITLE14=Charles Berry)
TTITLE15=I Be Bound To Write To You (Second Version) (Second Guitar By
TTITLE15=Charles Berry)
TTITLE16=You're Gonna Miss Me When I'm Gone (Number One)
TTITLE17=You Got To Take Sick And Die Some Of These Days
TTITLE18=Why Don't You Live So God Can Use You
TTITLE19=Country Blues (Number Two)
TTITLE20=You're Gonna Miss Me When I'm Gone (Number Two) (Previously U
TTITLE20=nissued)
TTITLE21=32-20 Blues (Second Guitar By Charles Berry) (Previously Unis
TTITLE21=sued)
EXTD=
EXTT0=
EXTT1=
EXTT2=
EXTT3=
EXTT4=
EXTT5=
EXTT6=
EXTT7=
EXTT8=
EXTT9=
EXTT10=
EXTT11=
EXTT12=
EXTT13=
EXTT14=
EXTT15=
EXTT16=
EXTT17=
EXTT18=
EXTT19=
EXTT20=
EXTT21=
PLAYORDER=
